<?xml version="1.0" encoding="ISO-8859-1"?>
<!DOCTYPE svg PUBLIC "-//W3C//DTD SVG 1.0//EN" "http://www.w3.org/TR/2001/REC-SVG-20010904/DTD/svg10.dtd">
<!-- generated by Grace-5.1.23 -->
<svg xml:space="preserve" width="11.1111in" height="8.5556in" viewBox="0.0000 0.0000 800.0000 616.0000">
 <g transform="translate(0,616.0000) scale(1,-1)">
 <desc></desc>
  <g style="fill:#000000; fill-rule:nonzero">
   <path  d="M0.0000,0.0000L0.0000,616.0000L800.0000,616.0000L800.0000,0.0000z"/>
  </g>
  <g style="fill:none; stroke:#40E0D0; stroke-width:  0.9240; stroke-linecap:butt; stroke-linejoin:miter; stroke-dasharray: 1 3">
   <path d="M215.6000,326.4295L338.8000,324.5581L462.0000,265.5915L585.2000,266.6522"/>
  </g>
  <g style="fill:none; stroke:#40E0D0; stroke-width:  0.9240; stroke-linecap:butt; stroke-linejoin:miter; stroke-dasharray:none">
   <path d="M209.4400,326.4295L221.7600,326.4295"/>
   <path d="M215.6000,320.2695L215.6000,332.5895"/>
   <path d="M332.6400,324.5581L344.9600,324.5581"/>
   <path d="M338.8000,318.3981L338.8000,330.7181"/>
   <path d="M455.8400,265.5915L468.1600,265.5915"/>
   <path d="M462.0000,259.4315L462.0000,271.7515"/>
   <path d="M579.0400,266.6522L591.3600,266.6522"/>
   <path d="M585.2000,260.4922L585.2000,272.8122"/>
  </g>
  <g style="fill:none; stroke:#FF00FF; stroke-width:  0.9240; stroke-linecap:butt; stroke-linejoin:miter; stroke-dasharray: 1 3">
   <path d="M215.6000,308.9098L338.8000,305.6672L462.0000,261.5770L585.2000,260.0031"/>
  </g>
  <g style="fill:none; stroke:#FF00FF; stroke-width:  0.9240; stroke-linecap:butt; stroke-linejoin:miter; stroke-dasharray:none">
   <path d="M209.4400,308.9098L221.7600,308.9098"/>
   <path d="M215.6000,302.7498L215.6000,315.0698"/>
   <path d="M332.6400,305.6672L344.9600,305.6672"/>
   <path d="M338.8000,299.5072L338.8000,311.8272"/>
   <path d="M455.8400,261.5770L468.1600,261.5770"/>
   <path d="M462.0000,255.4170L462.0000,267.7370"/>
   <path d="M579.0400,260.0031L591.3600,260.0031"/>
   <path d="M585.2000,253.8431L585.2000,266.1631"/>
  </g>
  <g style="fill:none; stroke:#00FF00; stroke-width:  0.9240; stroke-linecap:butt; stroke-linejoin:miter; stroke-dasharray: 1 3">
   <path d="M215.6000,161.9008L338.8000,162.4916L462.0000,143.3377L585.2000,144.3768"/>
  </g>
  <g style="fill:none; stroke:#00FF00; stroke-width:  0.9240; stroke-linecap:butt; stroke-linejoin:miter; stroke-dasharray:none">
   <path d="M209.4400,161.9008L221.7600,161.9008"/>
   <path d="M215.6000,155.7408L215.6000,168.0608"/>
   <path d="M332.6400,162.4916L344.9600,162.4916"/>
   <path d="M338.8000,156.3316L338.8000,168.6516"/>
   <path d="M455.8400,143.3377L468.1600,143.3377"/>
   <path d="M462.0000,137.1777L462.0000,149.4977"/>
   <path d="M579.0400,144.3768L591.3600,144.3768"/>
   <path d="M585.2000,138.2168L585.2000,150.5368"/>
  </g>
  <g style="fill:none; stroke:#FFA500; stroke-width:  0.9240; stroke-linecap:butt; stroke-linejoin:miter; stroke-dasharray: 1 3">
   <path d="M215.6000,218.6640L338.8000,218.2155L462.0000,186.6819L585.2000,185.0002"/>
  </g>
  <g style="fill:none; stroke:#FFA500; stroke-width:  0.9240; stroke-linecap:butt; stroke-linejoin:miter; stroke-dasharray:none">
   <path d="M209.4400,218.6640L221.7600,218.6640"/>
   <path d="M215.6000,212.5040L215.6000,224.8240"/>
   <path d="M332.6400,218.2155L344.9600,218.2155"/>
   <path d="M338.8000,212.0555L338.8000,224.3755"/>
   <path d="M455.8400,186.6819L468.1600,186.6819"/>
   <path d="M462.0000,180.5219L462.0000,192.8419"/>
   <path d="M579.0400,185.0002L591.3600,185.0002"/>
   <path d="M585.2000,178.8402L585.2000,191.1602"/>
  </g>
  <g style="fill:none; stroke:#DCDCDC; stroke-width:  0.9240; stroke-linecap:butt; stroke-linejoin:miter; stroke-dasharray:none">
   <path d="M92.4000,92.4000L708.4000,92.4000"/>
   <path d="M92.4000,523.6000L708.4000,523.6000"/>
   <path d="M92.4000,92.4000L92.4000,98.5600"/>
   <path d="M92.4000,523.6000L92.4000,517.4400"/>
   <path d="M708.4000,92.4000L708.4000,98.5600"/>
   <path d="M708.4000,523.6000L708.4000,517.4400"/>
   <path d="M215.6000,92.4000L215.6000,104.7200"/>
   <path d="M215.6000,523.6000L215.6000,511.2800"/>
   <path d="M338.8000,92.4000L338.8000,104.7200"/>
   <path d="M338.8000,523.6000L338.8000,511.2800"/>
   <path d="M462.0000,92.4000L462.0000,104.7200"/>
   <path d="M462.0000,523.6000L462.0000,511.2800"/>
   <path d="M585.2000,92.4000L585.2000,104.7200"/>
   <path d="M585.2000,523.6000L585.2000,511.2800"/>
  </g>
  <g style="fill:#DCDCDC; fill-rule:nonzero">
   <text   style="font-family:'Times','Nimbus Roman No9 L'; font-style:normal; font-weight:normal; font-size:616.0000" transform="matrix(0.0398,0.0000,-0.0000,-0.0398,179.6000,69.2400)">Vanilla</text>
   <text   style="font-family:'Times','Nimbus Roman No9 L'; font-style:normal; font-weight:normal; font-size:616.0000" transform="matrix(0.0398,0.0000,-0.0000,-0.0398,290.8000,69.2400)">Intra pred</text>
   <text   style="font-family:'Times','Nimbus Roman No9 L'; font-style:normal; font-weight:normal; font-size:616.0000" transform="matrix(0.0398,0.0000,-0.0000,-0.0398,433.5000,70.2400)">IDCT</text>
   <text   style="font-family:'Times','Nimbus Roman No9 L'; font-style:normal; font-weight:normal; font-size:616.0000" transform="matrix(0.0398,0.0000,-0.0000,-0.0398,561.7000,69.2400)">Both</text>
  </g>
  <g style="fill:none; stroke:#DCDCDC; stroke-width:  0.9240; stroke-linecap:butt; stroke-linejoin:miter; stroke-dasharray:none">
   <path d="M92.4000,92.4000L92.4000,523.6000"/>
   <path d="M708.4000,92.4000L708.4000,523.6000"/>
   <path d="M92.4000,103.1800L98.5600,103.1800"/>
   <path d="M708.4000,103.1800L702.2400,103.1800"/>
   <path d="M92.4000,113.9600L98.5600,113.9600"/>
   <path d="M708.4000,113.9600L702.2400,113.9600"/>
   <path d="M92.4000,124.7400L98.5600,124.7400"/>
   <path d="M708.4000,124.7400L702.2400,124.7400"/>
   <path d="M92.4000,146.3000L98.5600,146.3000"/>
   <path d="M708.4000,146.3000L702.2400,146.3000"/>
   <path d="M92.4000,157.0800L98.5600,157.0800"/>
   <path d="M708.4000,157.0800L702.2400,157.0800"/>
   <path d="M92.4000,167.8600L98.5600,167.8600"/>
   <path d="M708.4000,167.8600L702.2400,167.8600"/>
   <path d="M92.4000,189.4200L98.5600,189.4200"/>
   <path d="M708.4000,189.4200L702.2400,189.4200"/>
   <path d="M92.4000,200.2000L98.5600,200.2000"/>
   <path d="M708.4000,200.2000L702.2400,200.2000"/>
   <path d="M92.4000,210.9800L98.5600,210.9800"/>
   <path d="M708.4000,210.9800L702.2400,210.9800"/>
   <path d="M92.4000,232.5400L98.5600,232.5400"/>
   <path d="M708.4000,232.5400L702.2400,232.5400"/>
   <path d="M92.4000,243.3200L98.5600,243.3200"/>
   <path d="M708.4000,243.3200L702.2400,243.3200"/>
   <path d="M92.4000,254.1000L98.5600,254.1000"/>
   <path d="M708.4000,254.1000L702.2400,254.1000"/>
   <path d="M92.4000,275.6600L98.5600,275.6600"/>
   <path d="M708.4000,275.6600L702.2400,275.6600"/>
   <path d="M92.4000,286.4400L98.5600,286.4400"/>
   <path d="M708.4000,286.4400L702.2400,286.4400"/>
   <path d="M92.4000,297.2200L98.5600,297.2200"/>
   <path d="M708.4000,297.2200L702.2400,297.2200"/>
   <path d="M92.4000,318.7800L98.5600,318.7800"/>
   <path d="M708.4000,318.7800L702.2400,318.7800"/>
   <path d="M92.4000,329.5600L98.5600,329.5600"/>
   <path d="M708.4000,329.5600L702.2400,329.5600"/>
   <path d="M92.4000,340.3400L98.5600,340.3400"/>
   <path d="M708.4000,340.3400L702.2400,340.3400"/>
   <path d="M92.4000,361.9000L98.5600,361.9000"/>
   <path d="M708.4000,361.9000L702.2400,361.9000"/>
   <path d="M92.4000,372.6800L98.5600,372.6800"/>
   <path d="M708.4000,372.6800L702.2400,372.6800"/>
   <path d="M92.4000,383.4600L98.5600,383.4600"/>
   <path d="M708.4000,383.4600L702.2400,383.4600"/>
   <path d="M92.4000,405.0200L98.5600,405.0200"/>
   <path d="M708.4000,405.0200L702.2400,405.0200"/>
   <path d="M92.4000,415.8000L98.5600,415.8000"/>
   <path d="M708.4000,415.8000L702.2400,415.8000"/>
   <path d="M92.4000,426.5800L98.5600,426.5800"/>
   <path d="M708.4000,426.5800L702.2400,426.5800"/>
   <path d="M92.4000,448.1400L98.5600,448.1400"/>
   <path d="M708.4000,448.1400L702.2400,448.1400"/>
   <path d="M92.4000,458.9200L98.5600,458.9200"/>
   <path d="M708.4000,458.9200L702.2400,458.9200"/>
   <path d="M92.4000,469.7000L98.5600,469.7000"/>
   <path d="M708.4000,469.7000L702.2400,469.7000"/>
   <path d="M92.4000,491.2600L98.5600,491.2600"/>
   <path d="M708.4000,491.2600L702.2400,491.2600"/>
   <path d="M92.4000,502.0400L98.5600,502.0400"/>
   <path d="M708.4000,502.0400L702.2400,502.0400"/>
   <path d="M92.4000,512.8200L98.5600,512.8200"/>
   <path d="M708.4000,512.8200L702.2400,512.8200"/>
   <path d="M92.4000,92.4000L104.7200,92.4000"/>
   <path d="M708.4000,92.4000L696.0800,92.4000"/>
   <path d="M92.4000,135.5200L104.7200,135.5200"/>
   <path d="M708.4000,135.5200L696.0800,135.5200"/>
   <path d="M92.4000,178.6400L104.7200,178.6400"/>
   <path d="M708.4000,178.6400L696.0800,178.6400"/>
   <path d="M92.4000,221.7600L104.7200,221.7600"/>
   <path d="M708.4000,221.7600L696.0800,221.7600"/>
   <path d="M92.4000,264.8800L104.7200,264.8800"/>
   <path d="M708.4000,264.8800L696.0800,264.8800"/>
   <path d="M92.4000,308.0000L104.7200,308.0000"/>
   <path d="M708.4000,308.0000L696.0800,308.0000"/>
   <path d="M92.4000,351.1200L104.7200,351.1200"/>
   <path d="M708.4000,351.1200L696.0800,351.1200"/>
   <path d="M92.4000,394.2400L104.7200,394.2400"/>
   <path d="M708.4000,394.2400L696.0800,394.2400"/>
   <path d="M92.4000,437.3600L104.7200,437.3600"/>
   <path d="M708.4000,437.3600L696.0800,437.3600"/>
   <path d="M92.4000,480.4800L104.7200,480.4800"/>
   <path d="M708.4000,480.4800L696.0800,480.4800"/>
   <path d="M92.4000,523.6000L104.7200,523.6000"/>
   <path d="M708.4000,523.6000L696.0800,523.6000"/>
  </g>
  <g style="fill:#DCDCDC; fill-rule:nonzero">
   <text   style="font-family:'Times','Nimbus Roman No9 L'; font-style:normal; font-weight:normal; font-size:616.0000" transform="matrix(0.0381,0.0000,-0.0000,-0.0381,75.2400,84.4000)">0</text>
   <text   style="font-family:'Times','Nimbus Roman No9 L'; font-style:normal; font-weight:normal; font-size:616.0000" transform="matrix(0.0381,0.0000,-0.0000,-0.0381,63.2400,127.5200)">10</text>
   <text   style="font-family:'Times','Nimbus Roman No9 L'; font-style:normal; font-weight:normal; font-size:616.0000" transform="matrix(0.0381,0.0000,-0.0000,-0.0381,63.2400,170.6400)">20</text>
   <text   style="font-family:'Times','Nimbus Roman No9 L'; font-style:normal; font-weight:normal; font-size:616.0000" transform="matrix(0.0381,0.0000,-0.0000,-0.0381,63.2400,213.7600)">30</text>
   <text   style="font-family:'Times','Nimbus Roman No9 L'; font-style:normal; font-weight:normal; font-size:616.0000" transform="matrix(0.0381,0.0000,-0.0000,-0.0381,63.2400,256.8800)">40</text>
   <text   style="font-family:'Times','Nimbus Roman No9 L'; font-style:normal; font-weight:normal; font-size:616.0000" transform="matrix(0.0381,0.0000,-0.0000,-0.0381,63.2400,300.0000)">50</text>
   <text   style="font-family:'Times','Nimbus Roman No9 L'; font-style:normal; font-weight:normal; font-size:616.0000" transform="matrix(0.0381,0.0000,-0.0000,-0.0381,63.2400,343.1200)">60</text>
   <text   style="font-family:'Times','Nimbus Roman No9 L'; font-style:normal; font-weight:normal; font-size:616.0000" transform="matrix(0.0381,0.0000,-0.0000,-0.0381,63.2400,386.2400)">70</text>
   <text   style="font-family:'Times','Nimbus Roman No9 L'; font-style:normal; font-weight:normal; font-size:616.0000" transform="matrix(0.0381,0.0000,-0.0000,-0.0381,63.2400,429.3600)">80</text>
   <text   style="font-family:'Times','Nimbus Roman No9 L'; font-style:normal; font-weight:normal; font-size:616.0000" transform="matrix(0.0381,0.0000,-0.0000,-0.0381,63.2400,472.9800)">90</text>
   <text   style="font-family:'Times','Nimbus Roman No9 L'; font-style:normal; font-weight:normal; font-size:616.0000" transform="matrix(0.0381,0.0000,-0.0000,-0.0381,52.2400,515.6000)">100</text>
   <text   style="font-family:'Times','Nimbus Roman No9 L'; font-style:normal; font-weight:normal; font-size:616.0000" transform="matrix(0.0000,0.0414,0.0414,-0.0000,46.0800,268.0000)">seconds</text>
  </g>
  <g style="fill:none; stroke:#DCDCDC; stroke-width:  0.9240; stroke-linecap:butt; stroke-linejoin:miter; stroke-dasharray:none">
   <path d="M92.4000,92.4000L92.4000,523.6000L708.4000,523.6000L708.4000,92.4000z"/>
  </g>
  <g style="fill:#000000; fill-rule:nonzero">
   <path  d="M338.8000,492.8000L338.8000,377.0000L674.7020,377.0000L674.7020,492.8000z"/>
  </g>
  <g style="fill:none; stroke:#DCDCDC; stroke-width:  0.9240; stroke-linecap:butt; stroke-linejoin:miter; stroke-dasharray:none">
   <path d="M338.8000,492.8000L338.8000,377.0000L674.7020,377.0000L674.7020,492.8000z"/>
  </g>
  <g style="fill:#DCDCDC; fill-rule:nonzero">
   <text   style="font-family:'Times','Nimbus Roman No9 L'; font-style:normal; font-weight:normal; font-size:616.0000" transform="matrix(0.0395,0.0000,-0.0000,-0.0395,388.5420,470.6400)">Sony 4K HDR Camp</text>
  </g>
  <g style="fill:none; stroke:#40E0D0; stroke-width:  0.9240; stroke-linecap:butt; stroke-linejoin:miter; stroke-dasharray: 1 3">
   <path d="M351.5820,475.6400L376.2220,475.6400"/>
  </g>
  <g style="fill:none; stroke:#40E0D0; stroke-width:  0.9240; stroke-linecap:butt; stroke-linejoin:miter; stroke-dasharray:none">
   <path d="M345.4220,475.6400L357.7420,475.6400"/>
   <path d="M351.5820,469.4800L351.5820,481.8000"/>
   <path d="M370.0620,475.6400L382.3820,475.6400"/>
   <path d="M376.2220,469.4800L376.2220,481.8000"/>
  </g>
  <g style="fill:#DCDCDC; fill-rule:nonzero">
   <text   style="font-family:'Times','Nimbus Roman No9 L'; font-style:normal; font-weight:normal; font-size:616.0000" transform="matrix(0.0395,0.0000,-0.0000,-0.0395,388.5420,441.4800)">LG 4K HDR Chess</text>
  </g>
  <g style="fill:none; stroke:#FF00FF; stroke-width:  0.9240; stroke-linecap:butt; stroke-linejoin:miter; stroke-dasharray: 1 3">
   <path d="M351.5820,449.9800L376.2220,449.9800"/>
  </g>
  <g style="fill:none; stroke:#FF00FF; stroke-width:  0.9240; stroke-linecap:butt; stroke-linejoin:miter; stroke-dasharray:none">
   <path d="M345.4220,449.9800L357.7420,449.9800"/>
   <path d="M351.5820,443.8200L351.5820,456.1400"/>
   <path d="M370.0620,449.9800L382.3820,449.9800"/>
   <path d="M376.2220,443.8200L376.2220,456.1400"/>
  </g>
  <g style="fill:#DCDCDC; fill-rule:nonzero">
   <text   style="font-family:'Times','Nimbus Roman No9 L'; font-style:normal; font-weight:normal; font-size:616.0000" transform="matrix(0.0395,0.0000,-0.0000,-0.0395,388.5420,418.3200)">Jellyfish 110 Mbps HD</text>
  </g>
  <g style="fill:none; stroke:#00FF00; stroke-width:  0.9240; stroke-linecap:butt; stroke-linejoin:miter; stroke-dasharray: 1 3">
   <path d="M351.5820,423.8200L376.2220,423.8200"/>
  </g>
  <g style="fill:none; stroke:#00FF00; stroke-width:  0.9240; stroke-linecap:butt; stroke-linejoin:miter; stroke-dasharray:none">
   <path d="M345.4220,423.8200L357.7420,423.8200"/>
   <path d="M351.5820,417.6600L351.5820,429.9800"/>
   <path d="M370.0620,423.8200L382.3820,423.8200"/>
   <path d="M376.2220,417.6600L376.2220,429.9800"/>
  </g>
  <g style="fill:#DCDCDC; fill-rule:nonzero">
   <text   style="font-family:'Times','Nimbus Roman No9 L'; font-style:normal; font-weight:normal; font-size:616.0000" transform="matrix(0.0395,0.0000,-0.0000,-0.0395,388.5420,389.1600)">2015.03.01 4K J-pop sample</text>
  </g>
  <g style="fill:none; stroke:#FFA500; stroke-width:  0.9240; stroke-linecap:butt; stroke-linejoin:miter; stroke-dasharray: 1 3">
   <path d="M351.5820,394.6600L376.2220,394.6600"/>
  </g>
  <g style="fill:none; stroke:#FFA500; stroke-width:  0.9240; stroke-linecap:butt; stroke-linejoin:miter; stroke-dasharray:none">
   <path d="M345.4220,394.6600L357.7420,394.6600"/>
   <path d="M351.5820,388.5000L351.5820,400.8200"/>
   <path d="M370.0620,394.6600L382.3820,394.6600"/>
   <path d="M376.2220,388.5000L376.2220,400.8200"/>
  </g>
 </g>
</svg>
