<?xml version="1.0" encoding="ISO-8859-1"?>
<!DOCTYPE svg PUBLIC "-//W3C//DTD SVG 1.0//EN" "http://www.w3.org/TR/2001/REC-SVG-20010904/DTD/svg10.dtd">
<!-- generated by Grace-5.1.23 -->
<svg xml:space="preserve" width="13.8889in" height="10.7361in" viewBox="0.0000 0.0000 1000.0000 773.0000">
 <g transform="translate(0,773.0000) scale(1,-1)">
 <desc></desc>
  <g style="fill:#000000; fill-rule:nonzero">
   <path  d="M0.0000,0.0000L0.0000,773.0000L1000.0001,773.0000L1000.0001,0.0000z"/>
  </g>
  <g style="fill:none; stroke:#40E0D0; stroke-width:  1.1595; stroke-linecap:butt; stroke-linejoin:miter; stroke-dasharray: 1 3">
   <path d="M139.3742,635.1185L162.7985,391.7926L186.2227,348.8597L209.6470,269.6900L233.0712,256.7544L256.4955,242.3645L279.9197,222.4452L303.3439,215.0339L326.7682,208.2938L350.1924,205.0945
            L373.6167,201.0735L397.0409,195.4190L420.4652,194.0815L443.8894,190.0756L467.3136,188.5775L490.7379,188.8784L514.1621,188.1649L537.5864,186.8037L561.0106,186.6295L584.4348,186.9136
            L607.8591,188.1209L631.2833,186.5044L654.7076,186.2524L678.1318,185.4966L701.5561,185.5355L724.9803,185.1330L748.4045,184.4955L771.8288,184.7272L795.2530,182.9585L818.6773,183.5976
            L842.1015,183.8462L865.5258,183.6856"/>
  </g>
  <g style="fill:none; stroke:#40E0D0; stroke-width:  1.1595; stroke-linecap:butt; stroke-linejoin:miter; stroke-dasharray:none">
   <path d="M136.2049,635.1185L142.5435,635.1185"/>
   <path d="M139.3742,631.9492L139.3742,638.2878"/>
   <path d="M159.6292,391.7926L165.9678,391.7926"/>
   <path d="M162.7985,388.6233L162.7985,394.9619"/>
   <path d="M183.0534,348.8597L189.3920,348.8597"/>
   <path d="M186.2227,345.6904L186.2227,352.0290"/>
   <path d="M206.4777,269.6900L212.8163,269.6900"/>
   <path d="M209.6470,266.5207L209.6470,272.8593"/>
   <path d="M229.9019,256.7544L236.2405,256.7544"/>
   <path d="M233.0712,253.5851L233.0712,259.9237"/>
   <path d="M253.3262,242.3645L259.6648,242.3645"/>
   <path d="M256.4955,239.1952L256.4955,245.5338"/>
   <path d="M276.7504,222.4452L283.0890,222.4452"/>
   <path d="M279.9197,219.2759L279.9197,225.6145"/>
   <path d="M300.1746,215.0339L306.5132,215.0339"/>
   <path d="M303.3439,211.8646L303.3439,218.2032"/>
   <path d="M323.5989,208.2938L329.9375,208.2938"/>
   <path d="M326.7682,205.1245L326.7682,211.4631"/>
   <path d="M347.0231,205.0945L353.3617,205.0945"/>
   <path d="M350.1924,201.9252L350.1924,208.2638"/>
   <path d="M370.4474,201.0735L376.7860,201.0735"/>
   <path d="M373.6167,197.9042L373.6167,204.2428"/>
   <path d="M393.8716,195.4190L400.2102,195.4190"/>
   <path d="M397.0409,192.2497L397.0409,198.5883"/>
   <path d="M417.2959,194.0815L423.6345,194.0815"/>
   <path d="M420.4652,190.9122L420.4652,197.2508"/>
   <path d="M440.7201,190.0756L447.0587,190.0756"/>
   <path d="M443.8894,186.9063L443.8894,193.2449"/>
   <path d="M464.1443,188.5775L470.4829,188.5775"/>
   <path d="M467.3136,185.4082L467.3136,191.7468"/>
   <path d="M487.5686,188.8784L493.9072,188.8784"/>
   <path d="M490.7379,185.7091L490.7379,192.0477"/>
   <path d="M510.9928,188.1649L517.3314,188.1649"/>
   <path d="M514.1621,184.9956L514.1621,191.3342"/>
   <path d="M534.4171,186.8037L540.7557,186.8037"/>
   <path d="M537.5864,183.6344L537.5864,189.9730"/>
   <path d="M557.8413,186.6295L564.1799,186.6295"/>
   <path d="M561.0106,183.4602L561.0106,189.7988"/>
   <path d="M581.2655,186.9136L587.6041,186.9136"/>
   <path d="M584.4348,183.7443L584.4348,190.0829"/>
   <path d="M604.6898,188.1209L611.0284,188.1209"/>
   <path d="M607.8591,184.9516L607.8591,191.2902"/>
   <path d="M628.1140,186.5044L634.4526,186.5044"/>
   <path d="M631.2833,183.3351L631.2833,189.6737"/>
   <path d="M651.5383,186.2524L657.8769,186.2524"/>
   <path d="M654.7076,183.0831L654.7076,189.4217"/>
   <path d="M674.9625,185.4966L681.3011,185.4966"/>
   <path d="M678.1318,182.3273L678.1318,188.6659"/>
   <path d="M698.3868,185.5355L704.7254,185.5355"/>
   <path d="M701.5561,182.3662L701.5561,188.7048"/>
   <path d="M721.8110,185.1330L728.1496,185.1330"/>
   <path d="M724.9803,181.9637L724.9803,188.3023"/>
   <path d="M745.2352,184.4955L751.5738,184.4955"/>
   <path d="M748.4045,181.3262L748.4045,187.6648"/>
   <path d="M768.6595,184.7272L774.9981,184.7272"/>
   <path d="M771.8288,181.5579L771.8288,187.8965"/>
   <path d="M792.0837,182.9585L798.4223,182.9585"/>
   <path d="M795.2530,179.7892L795.2530,186.1278"/>
   <path d="M815.5080,183.5976L821.8466,183.5976"/>
   <path d="M818.6773,180.4283L818.6773,186.7669"/>
   <path d="M838.9322,183.8462L845.2708,183.8462"/>
   <path d="M842.1015,180.6769L842.1015,187.0155"/>
   <path d="M862.3565,183.6856L868.6951,183.6856"/>
   <path d="M865.5258,180.5163L865.5258,186.8549"/>
  </g>
  <g style="fill:none; stroke:#FF00FF; stroke-width:  1.1595; stroke-linecap:butt; stroke-linejoin:miter; stroke-dasharray: 1 3">
   <path d="M139.3742,611.3778L162.7985,397.8293L186.2227,360.6963L209.6470,320.7564L233.0712,318.9301L256.4955,299.7718L279.9197,271.4486L303.3439,241.6881L326.7682,233.6562L350.1924,232.8614
            L373.6167,232.0836L397.0409,232.1512L420.4652,231.1028L443.8894,220.0272L467.3136,207.8829L490.7379,203.8263L514.1621,203.7790L537.5864,203.7350L561.0106,202.6055L584.4348,201.9359
            L607.8591,201.3728L631.2833,194.7156L654.7076,189.1388L678.1318,188.6011L701.5561,188.9089L724.9803,188.8040L748.4045,188.8446L771.8288,188.0127L795.2530,189.4009L818.6773,184.7745
            L842.1015,181.4992L865.5258,181.3893"/>
  </g>
  <g style="fill:none; stroke:#FF00FF; stroke-width:  1.1595; stroke-linecap:butt; stroke-linejoin:miter; stroke-dasharray:none">
   <path d="M136.2049,611.3778L142.5435,611.3778"/>
   <path d="M139.3742,608.2085L139.3742,614.5471"/>
   <path d="M159.6292,397.8293L165.9678,397.8293"/>
   <path d="M162.7985,394.6600L162.7985,400.9986"/>
   <path d="M183.0534,360.6963L189.3920,360.6963"/>
   <path d="M186.2227,357.5270L186.2227,363.8656"/>
   <path d="M206.4777,320.7564L212.8163,320.7564"/>
   <path d="M209.6470,317.5871L209.6470,323.9257"/>
   <path d="M229.9019,318.9301L236.2405,318.9301"/>
   <path d="M233.0712,315.7608L233.0712,322.0994"/>
   <path d="M253.3262,299.7718L259.6648,299.7718"/>
   <path d="M256.4955,296.6025L256.4955,302.9411"/>
   <path d="M276.7504,271.4486L283.0890,271.4486"/>
   <path d="M279.9197,268.2793L279.9197,274.6179"/>
   <path d="M300.1746,241.6881L306.5132,241.6881"/>
   <path d="M303.3439,238.5188L303.3439,244.8574"/>
   <path d="M323.5989,233.6562L329.9375,233.6562"/>
   <path d="M326.7682,230.4869L326.7682,236.8255"/>
   <path d="M347.0231,232.8614L353.3617,232.8614"/>
   <path d="M350.1924,229.6921L350.1924,236.0307"/>
   <path d="M370.4474,232.0836L376.7860,232.0836"/>
   <path d="M373.6167,228.9143L373.6167,235.2529"/>
   <path d="M393.8716,232.1512L400.2102,232.1512"/>
   <path d="M397.0409,228.9819L397.0409,235.3205"/>
   <path d="M417.2959,231.1028L423.6345,231.1028"/>
   <path d="M420.4652,227.9335L420.4652,234.2721"/>
   <path d="M440.7201,220.0272L447.0587,220.0272"/>
   <path d="M443.8894,216.8579L443.8894,223.1965"/>
   <path d="M464.1443,207.8829L470.4829,207.8829"/>
   <path d="M467.3136,204.7136L467.3136,211.0522"/>
   <path d="M487.5686,203.8263L493.9072,203.8263"/>
   <path d="M490.7379,200.6570L490.7379,206.9956"/>
   <path d="M510.9928,203.7790L517.3314,203.7790"/>
   <path d="M514.1621,200.6097L514.1621,206.9483"/>
   <path d="M534.4171,203.7350L540.7557,203.7350"/>
   <path d="M537.5864,200.5657L537.5864,206.9043"/>
   <path d="M557.8413,202.6055L564.1799,202.6055"/>
   <path d="M561.0106,199.4362L561.0106,205.7748"/>
   <path d="M581.2655,201.9359L587.6041,201.9359"/>
   <path d="M584.4348,198.7666L584.4348,205.1052"/>
   <path d="M604.6898,201.3728L611.0284,201.3728"/>
   <path d="M607.8591,198.2035L607.8591,204.5421"/>
   <path d="M628.1140,194.7156L634.4526,194.7156"/>
   <path d="M631.2833,191.5463L631.2833,197.8849"/>
   <path d="M651.5383,189.1388L657.8769,189.1388"/>
   <path d="M654.7076,185.9695L654.7076,192.3081"/>
   <path d="M674.9625,188.6011L681.3011,188.6011"/>
   <path d="M678.1318,185.4318L678.1318,191.7704"/>
   <path d="M698.3868,188.9089L704.7254,188.9089"/>
   <path d="M701.5561,185.7396L701.5561,192.0782"/>
   <path d="M721.8110,188.8040L728.1496,188.8040"/>
   <path d="M724.9803,185.6347L724.9803,191.9733"/>
   <path d="M745.2352,188.8446L751.5738,188.8446"/>
   <path d="M748.4045,185.6753L748.4045,192.0139"/>
   <path d="M768.6595,188.0127L774.9981,188.0127"/>
   <path d="M771.8288,184.8434L771.8288,191.1820"/>
   <path d="M792.0837,189.4009L798.4223,189.4009"/>
   <path d="M795.2530,186.2316L795.2530,192.5702"/>
   <path d="M815.5080,184.7745L821.8466,184.7745"/>
   <path d="M818.6773,181.6052L818.6773,187.9438"/>
   <path d="M838.9322,181.4992L845.2708,181.4992"/>
   <path d="M842.1015,178.3299L842.1015,184.6685"/>
   <path d="M862.3565,181.3893L868.6951,181.3893"/>
   <path d="M865.5258,178.2200L865.5258,184.5586"/>
  </g>
  <g style="fill:none; stroke:#00FF00; stroke-width:  1.1595; stroke-linecap:butt; stroke-linejoin:miter; stroke-dasharray: 1 3">
   <path d="M139.3742,247.4542L162.7985,183.4827L186.2227,165.0920L209.6470,155.7361L233.0712,145.5938L256.4955,143.9266L279.9197,140.7493L303.3439,137.8747L326.7682,138.5392L350.1924,138.9062
            L373.6167,138.6576L397.0409,138.6627L420.4652,137.5027L443.8894,137.8578L467.3136,138.0353L490.7379,137.6701L514.1621,138.3177L537.5864,138.2027L561.0106,137.2051L584.4348,137.9694
            L607.8591,138.7354L631.2833,137.4317L654.7076,137.8967L678.1318,137.7242L701.5561,137.1983L724.9803,138.0286L748.4045,137.1442L771.8288,137.9440L795.2530,137.1611L818.6773,137.2710
            L842.1015,136.8618L865.5258,137.2068"/>
  </g>
  <g style="fill:none; stroke:#00FF00; stroke-width:  1.1595; stroke-linecap:butt; stroke-linejoin:miter; stroke-dasharray:none">
   <path d="M136.2049,247.4542L142.5435,247.4542"/>
   <path d="M139.3742,244.2849L139.3742,250.6235"/>
   <path d="M159.6292,183.4827L165.9678,183.4827"/>
   <path d="M162.7985,180.3134L162.7985,186.6520"/>
   <path d="M183.0534,165.0920L189.3920,165.0920"/>
   <path d="M186.2227,161.9227L186.2227,168.2613"/>
   <path d="M206.4777,155.7361L212.8163,155.7361"/>
   <path d="M209.6470,152.5668L209.6470,158.9054"/>
   <path d="M229.9019,145.5938L236.2405,145.5938"/>
   <path d="M233.0712,142.4245L233.0712,148.7631"/>
   <path d="M253.3262,143.9266L259.6648,143.9266"/>
   <path d="M256.4955,140.7573L256.4955,147.0959"/>
   <path d="M276.7504,140.7493L283.0890,140.7493"/>
   <path d="M279.9197,137.5800L279.9197,143.9186"/>
   <path d="M300.1746,137.8747L306.5132,137.8747"/>
   <path d="M303.3439,134.7054L303.3439,141.0440"/>
   <path d="M323.5989,138.5392L329.9375,138.5392"/>
   <path d="M326.7682,135.3699L326.7682,141.7085"/>
   <path d="M347.0231,138.9062L353.3617,138.9062"/>
   <path d="M350.1924,135.7369L350.1924,142.0755"/>
   <path d="M370.4474,138.6576L376.7860,138.6576"/>
   <path d="M373.6167,135.4883L373.6167,141.8269"/>
   <path d="M393.8716,138.6627L400.2102,138.6627"/>
   <path d="M397.0409,135.4934L397.0409,141.8320"/>
   <path d="M417.2959,137.5027L423.6345,137.5027"/>
   <path d="M420.4652,134.3334L420.4652,140.6720"/>
   <path d="M440.7201,137.8578L447.0587,137.8578"/>
   <path d="M443.8894,134.6885L443.8894,141.0271"/>
   <path d="M464.1443,138.0353L470.4829,138.0353"/>
   <path d="M467.3136,134.8660L467.3136,141.2046"/>
   <path d="M487.5686,137.6701L493.9072,137.6701"/>
   <path d="M490.7379,134.5008L490.7379,140.8394"/>
   <path d="M510.9928,138.3177L517.3314,138.3177"/>
   <path d="M514.1621,135.1484L514.1621,141.4870"/>
   <path d="M534.4171,138.2027L540.7557,138.2027"/>
   <path d="M537.5864,135.0334L537.5864,141.3720"/>
   <path d="M557.8413,137.2051L564.1799,137.2051"/>
   <path d="M561.0106,134.0358L561.0106,140.3744"/>
   <path d="M581.2655,137.9694L587.6041,137.9694"/>
   <path d="M584.4348,134.8001L584.4348,141.1387"/>
   <path d="M604.6898,138.7354L611.0284,138.7354"/>
   <path d="M607.8591,135.5661L607.8591,141.9047"/>
   <path d="M628.1140,137.4317L634.4526,137.4317"/>
   <path d="M631.2833,134.2624L631.2833,140.6010"/>
   <path d="M651.5383,137.8967L657.8769,137.8967"/>
   <path d="M654.7076,134.7274L654.7076,141.0660"/>
   <path d="M674.9625,137.7242L681.3011,137.7242"/>
   <path d="M678.1318,134.5549L678.1318,140.8935"/>
   <path d="M698.3868,137.1983L704.7254,137.1983"/>
   <path d="M701.5561,134.0290L701.5561,140.3676"/>
   <path d="M721.8110,138.0286L728.1496,138.0286"/>
   <path d="M724.9803,134.8593L724.9803,141.1979"/>
   <path d="M745.2352,137.1442L751.5738,137.1442"/>
   <path d="M748.4045,133.9749L748.4045,140.3135"/>
   <path d="M768.6595,137.9440L774.9981,137.9440"/>
   <path d="M771.8288,134.7747L771.8288,141.1133"/>
   <path d="M792.0837,137.1611L798.4223,137.1611"/>
   <path d="M795.2530,133.9918L795.2530,140.3304"/>
   <path d="M815.5080,137.2710L821.8466,137.2710"/>
   <path d="M818.6773,134.1017L818.6773,140.4403"/>
   <path d="M838.9322,136.8618L845.2708,136.8618"/>
   <path d="M842.1015,133.6925L842.1015,140.0311"/>
   <path d="M862.3565,137.2068L868.6951,137.2068"/>
   <path d="M865.5258,134.0375L865.5258,140.3761"/>
  </g>
  <g style="fill:none; stroke:#FFA500; stroke-width:  1.1595; stroke-linecap:butt; stroke-linejoin:miter; stroke-dasharray: 1 3">
   <path d="M139.3742,489.0215L162.7985,318.3045L186.2227,291.3679L209.6470,226.5204L233.0712,220.5683L256.4955,218.2010L279.9197,192.4074L303.3439,191.3557L326.7682,189.5176L350.1924,183.0109
            L373.6167,182.8012L397.0409,177.7098L420.4652,174.9857L443.8894,173.6871L467.3136,169.8994L490.7379,162.5928L514.1621,163.1356L537.5864,161.4379L561.0106,161.0355L584.4348,161.2553
            L607.8591,159.6472L631.2833,159.7740L654.7076,159.5204L678.1318,158.5143L701.5561,158.2826L724.9803,158.0949L748.4045,156.9299L771.8288,156.0590L795.2530,156.7692L818.6773,155.2542
            L842.1015,152.8479L865.5258,152.5131"/>
  </g>
  <g style="fill:none; stroke:#FFA500; stroke-width:  1.1595; stroke-linecap:butt; stroke-linejoin:miter; stroke-dasharray:none">
   <path d="M136.2049,489.0215L142.5435,489.0215"/>
   <path d="M139.3742,485.8522L139.3742,492.1908"/>
   <path d="M159.6292,318.3045L165.9678,318.3045"/>
   <path d="M162.7985,315.1352L162.7985,321.4738"/>
   <path d="M183.0534,291.3679L189.3920,291.3679"/>
   <path d="M186.2227,288.1986L186.2227,294.5372"/>
   <path d="M206.4777,226.5204L212.8163,226.5204"/>
   <path d="M209.6470,223.3511L209.6470,229.6897"/>
   <path d="M229.9019,220.5683L236.2405,220.5683"/>
   <path d="M233.0712,217.3990L233.0712,223.7376"/>
   <path d="M253.3262,218.2010L259.6648,218.2010"/>
   <path d="M256.4955,215.0317L256.4955,221.3703"/>
   <path d="M276.7504,192.4074L283.0890,192.4074"/>
   <path d="M279.9197,189.2381L279.9197,195.5767"/>
   <path d="M300.1746,191.3557L306.5132,191.3557"/>
   <path d="M303.3439,188.1864L303.3439,194.5250"/>
   <path d="M323.5989,189.5176L329.9375,189.5176"/>
   <path d="M326.7682,186.3483L326.7682,192.6869"/>
   <path d="M347.0231,183.0109L353.3617,183.0109"/>
   <path d="M350.1924,179.8416L350.1924,186.1802"/>
   <path d="M370.4474,182.8012L376.7860,182.8012"/>
   <path d="M373.6167,179.6319L373.6167,185.9705"/>
   <path d="M393.8716,177.7098L400.2102,177.7098"/>
   <path d="M397.0409,174.5405L397.0409,180.8791"/>
   <path d="M417.2959,174.9857L423.6345,174.9857"/>
   <path d="M420.4652,171.8164L420.4652,178.1550"/>
   <path d="M440.7201,173.6871L447.0587,173.6871"/>
   <path d="M443.8894,170.5178L443.8894,176.8564"/>
   <path d="M464.1443,169.8994L470.4829,169.8994"/>
   <path d="M467.3136,166.7301L467.3136,173.0687"/>
   <path d="M487.5686,162.5928L493.9072,162.5928"/>
   <path d="M490.7379,159.4235L490.7379,165.7621"/>
   <path d="M510.9928,163.1356L517.3314,163.1356"/>
   <path d="M514.1621,159.9663L514.1621,166.3049"/>
   <path d="M534.4171,161.4379L540.7557,161.4379"/>
   <path d="M537.5864,158.2686L537.5864,164.6072"/>
   <path d="M557.8413,161.0355L564.1799,161.0355"/>
   <path d="M561.0106,157.8662L561.0106,164.2048"/>
   <path d="M581.2655,161.2553L587.6041,161.2553"/>
   <path d="M584.4348,158.0860L584.4348,164.4246"/>
   <path d="M604.6898,159.6472L611.0284,159.6472"/>
   <path d="M607.8591,156.4779L607.8591,162.8165"/>
   <path d="M628.1140,159.7740L634.4526,159.7740"/>
   <path d="M631.2833,156.6047L631.2833,162.9433"/>
   <path d="M651.5383,159.5204L657.8769,159.5204"/>
   <path d="M654.7076,156.3511L654.7076,162.6897"/>
   <path d="M674.9625,158.5143L681.3011,158.5143"/>
   <path d="M678.1318,155.3450L678.1318,161.6836"/>
   <path d="M698.3868,158.2826L704.7254,158.2826"/>
   <path d="M701.5561,155.1133L701.5561,161.4519"/>
   <path d="M721.8110,158.0949L728.1496,158.0949"/>
   <path d="M724.9803,154.9256L724.9803,161.2642"/>
   <path d="M745.2352,156.9299L751.5738,156.9299"/>
   <path d="M748.4045,153.7606L748.4045,160.0992"/>
   <path d="M768.6595,156.0590L774.9981,156.0590"/>
   <path d="M771.8288,152.8897L771.8288,159.2283"/>
   <path d="M792.0837,156.7692L798.4223,156.7692"/>
   <path d="M795.2530,153.5999L795.2530,159.9385"/>
   <path d="M815.5080,155.2542L821.8466,155.2542"/>
   <path d="M818.6773,152.0849L818.6773,158.4235"/>
   <path d="M838.9322,152.8479L845.2708,152.8479"/>
   <path d="M842.1015,149.6786L842.1015,156.0172"/>
   <path d="M862.3565,152.5131L868.6951,152.5131"/>
   <path d="M865.5258,149.3438L865.5258,155.6824"/>
  </g>
  <g style="fill:none; stroke:#DCDCDC; stroke-width:  1.1595; stroke-linecap:butt; stroke-linejoin:miter; stroke-dasharray:none">
   <path d="M115.9500,115.9500L888.9500,115.9500"/>
   <path d="M115.9500,657.0500L888.9500,657.0500"/>
   <path d="M162.7985,115.9500L162.7985,123.6800"/>
   <path d="M162.7985,657.0500L162.7985,649.3200"/>
   <path d="M209.6470,115.9500L209.6470,123.6800"/>
   <path d="M209.6470,657.0500L209.6470,649.3200"/>
   <path d="M256.4955,115.9500L256.4955,123.6800"/>
   <path d="M256.4955,657.0500L256.4955,649.3200"/>
   <path d="M303.3439,115.9500L303.3439,123.6800"/>
   <path d="M303.3439,657.0500L303.3439,649.3200"/>
   <path d="M397.0409,115.9500L397.0409,123.6800"/>
   <path d="M397.0409,657.0500L397.0409,649.3200"/>
   <path d="M443.8894,115.9500L443.8894,123.6800"/>
   <path d="M443.8894,657.0500L443.8894,649.3200"/>
   <path d="M490.7379,115.9500L490.7379,123.6800"/>
   <path d="M490.7379,657.0500L490.7379,649.3200"/>
   <path d="M537.5864,115.9500L537.5864,123.6800"/>
   <path d="M537.5864,657.0500L537.5864,649.3200"/>
   <path d="M631.2833,115.9500L631.2833,123.6800"/>
   <path d="M631.2833,657.0500L631.2833,649.3200"/>
   <path d="M678.1318,115.9500L678.1318,123.6800"/>
   <path d="M678.1318,657.0500L678.1318,649.3200"/>
   <path d="M724.9803,115.9500L724.9803,123.6800"/>
   <path d="M724.9803,657.0500L724.9803,649.3200"/>
   <path d="M771.8288,115.9500L771.8288,123.6800"/>
   <path d="M771.8288,657.0500L771.8288,649.3200"/>
   <path d="M865.5258,115.9500L865.5258,123.6800"/>
   <path d="M865.5258,657.0500L865.5258,649.3200"/>
   <path d="M115.9500,115.9500L115.9500,131.4100"/>
   <path d="M115.9500,657.0500L115.9500,641.5900"/>
   <path d="M350.1924,115.9500L350.1924,131.4100"/>
   <path d="M350.1924,657.0500L350.1924,641.5900"/>
   <path d="M584.4348,115.9500L584.4348,131.4100"/>
   <path d="M584.4348,657.0500L584.4348,641.5900"/>
   <path d="M818.6773,115.9500L818.6773,131.4100"/>
   <path d="M818.6773,657.0500L818.6773,641.5900"/>
  </g>
  <g style="fill:#DCDCDC; fill-rule:nonzero">
   <text   style="font-family:'Times','serif'; font-style:normal; font-weight:normal; font-size:773.0000" transform="matrix(0.0280,0.0000,-0.0000,-0.0280,110.4500,93.2200)">0</text>
   <text   style="font-family:'Times','serif'; font-style:normal; font-weight:normal; font-size:773.0000" transform="matrix(0.0280,0.0000,-0.0000,-0.0280,339.1924,93.2200)">10</text>
   <text   style="font-family:'Times','serif'; font-style:normal; font-weight:normal; font-size:773.0000" transform="matrix(0.0280,0.0000,-0.0000,-0.0280,573.4348,93.2200)">20</text>
   <text   style="font-family:'Times','serif'; font-style:normal; font-weight:normal; font-size:773.0000" transform="matrix(0.0280,0.0000,-0.0000,-0.0280,807.6773,93.2200)">30</text>
   <text   style="font-family:'Times','serif'; font-style:normal; font-weight:normal; font-size:773.0000" transform="matrix(0.0280,0.0000,-0.0000,-0.0280,423.9500,69.4900)">number of threads</text>
  </g>
  <g style="fill:none; stroke:#DCDCDC; stroke-width:  1.1595; stroke-linecap:butt; stroke-linejoin:miter; stroke-dasharray:none">
   <path d="M115.9500,115.9500L115.9500,657.0500"/>
   <path d="M888.9500,115.9500L888.9500,657.0500"/>
   <path d="M115.9500,158.2234L123.6800,158.2234"/>
   <path d="M888.9500,158.2234L881.2200,158.2234"/>
   <path d="M115.9500,200.4969L123.6800,200.4969"/>
   <path d="M888.9500,200.4969L881.2200,200.4969"/>
   <path d="M115.9500,242.7703L123.6800,242.7703"/>
   <path d="M888.9500,242.7703L881.2200,242.7703"/>
   <path d="M115.9500,327.3172L123.6800,327.3172"/>
   <path d="M888.9500,327.3172L881.2200,327.3172"/>
   <path d="M115.9500,369.5906L123.6800,369.5906"/>
   <path d="M888.9500,369.5906L881.2200,369.5906"/>
   <path d="M115.9500,411.8641L123.6800,411.8641"/>
   <path d="M888.9500,411.8641L881.2200,411.8641"/>
   <path d="M115.9500,496.4109L123.6800,496.4109"/>
   <path d="M888.9500,496.4109L881.2200,496.4109"/>
   <path d="M115.9500,538.6844L123.6800,538.6844"/>
   <path d="M888.9500,538.6844L881.2200,538.6844"/>
   <path d="M115.9500,580.9578L123.6800,580.9578"/>
   <path d="M888.9500,580.9578L881.2200,580.9578"/>
   <path d="M115.9500,115.9500L131.4100,115.9500"/>
   <path d="M888.9500,115.9500L873.4900,115.9500"/>
   <path d="M115.9500,285.0438L131.4100,285.0438"/>
   <path d="M888.9500,285.0438L873.4900,285.0438"/>
   <path d="M115.9500,454.1375L131.4100,454.1375"/>
   <path d="M888.9500,454.1375L873.4900,454.1375"/>
   <path d="M115.9500,623.2312L131.4100,623.2312"/>
   <path d="M888.9500,623.2312L873.4900,623.2312"/>
  </g>
  <g style="fill:#DCDCDC; fill-rule:nonzero">
   <text   style="font-family:'Times','serif'; font-style:normal; font-weight:normal; font-size:773.0000" transform="matrix(0.0280,0.0000,-0.0000,-0.0280,97.2200,108.9500)">0</text>
   <text   style="font-family:'Times','serif'; font-style:normal; font-weight:normal; font-size:773.0000" transform="matrix(0.0280,0.0000,-0.0000,-0.0280,76.2200,278.0437)">100</text>
   <text   style="font-family:'Times','serif'; font-style:normal; font-weight:normal; font-size:773.0000" transform="matrix(0.0280,0.0000,-0.0000,-0.0280,76.2200,447.1375)">200</text>
   <text   style="font-family:'Times','serif'; font-style:normal; font-weight:normal; font-size:773.0000" transform="matrix(0.0280,0.0000,-0.0000,-0.0280,76.2200,616.2312)">300</text>
   <text   style="font-family:'Times','serif'; font-style:normal; font-weight:normal; font-size:773.0000" transform="matrix(0.0000,0.0280,0.0280,-0.0000,68.4900,352.5000)">seconds</text>
  </g>
  <g style="fill:none; stroke:#DCDCDC; stroke-width:  1.1595; stroke-linecap:butt; stroke-linejoin:miter; stroke-dasharray:none">
   <path d="M115.9500,115.9500L115.9500,657.0500L888.9500,657.0500L888.9500,115.9500z"/>
  </g>
  <g style="fill:#000000; fill-rule:nonzero">
   <path  d="M579.7500,618.4000L579.7500,519.7500L840.7783,519.7500L840.7783,618.4000z"/>
  </g>
  <g style="fill:none; stroke:#DCDCDC; stroke-width:  1.1595; stroke-linecap:butt; stroke-linejoin:miter; stroke-dasharray:none">
   <path d="M579.7500,618.4000L579.7500,519.7500L840.7783,519.7500L840.7783,618.4000z"/>
  </g>
  <g style="fill:#DCDCDC; fill-rule:nonzero">
   <text   style="font-family:'Times','serif'; font-style:normal; font-weight:normal; font-size:773.0000" transform="matrix(0.0224,0.0000,-0.0000,-0.0224,633.0484,598.6700)">Sony 4K HDR Camp</text>
  </g>
  <g style="fill:none; stroke:#40E0D0; stroke-width:  1.1595; stroke-linecap:butt; stroke-linejoin:miter; stroke-dasharray: 1 3">
   <path d="M591.2291,602.6700L622.1491,602.6700"/>
  </g>
  <g style="fill:none; stroke:#40E0D0; stroke-width:  1.1595; stroke-linecap:butt; stroke-linejoin:miter; stroke-dasharray:none">
   <path d="M588.0598,602.6700L594.3984,602.6700"/>
   <path d="M591.2291,599.5007L591.2291,605.8393"/>
   <path d="M618.9798,602.6700L625.3184,602.6700"/>
   <path d="M622.1491,599.5007L622.1491,605.8393"/>
  </g>
  <g style="fill:#DCDCDC; fill-rule:nonzero">
   <text   style="font-family:'Times','serif'; font-style:normal; font-weight:normal; font-size:773.0000" transform="matrix(0.0224,0.0000,-0.0000,-0.0224,633.0484,574.9400)">LG 4K HDR Chess</text>
  </g>
  <g style="fill:none; stroke:#FF00FF; stroke-width:  1.1595; stroke-linecap:butt; stroke-linejoin:miter; stroke-dasharray: 1 3">
   <path d="M591.2291,580.9400L622.1491,580.9400"/>
  </g>
  <g style="fill:none; stroke:#FF00FF; stroke-width:  1.1595; stroke-linecap:butt; stroke-linejoin:miter; stroke-dasharray:none">
   <path d="M588.0598,580.9400L594.3984,580.9400"/>
   <path d="M591.2291,577.7707L591.2291,584.1093"/>
   <path d="M618.9798,580.9400L625.3184,580.9400"/>
   <path d="M622.1491,577.7707L622.1491,584.1093"/>
  </g>
  <g style="fill:#DCDCDC; fill-rule:nonzero">
   <text   style="font-family:'Times','serif'; font-style:normal; font-weight:normal; font-size:773.0000" transform="matrix(0.0224,0.0000,-0.0000,-0.0224,633.0484,555.2100)">Jellyfish 110 Mbps HD</text>
  </g>
  <g style="fill:none; stroke:#00FF00; stroke-width:  1.1595; stroke-linecap:butt; stroke-linejoin:miter; stroke-dasharray: 1 3">
   <path d="M591.2291,559.2100L622.1491,559.2100"/>
  </g>
  <g style="fill:none; stroke:#00FF00; stroke-width:  1.1595; stroke-linecap:butt; stroke-linejoin:miter; stroke-dasharray:none">
   <path d="M588.0598,559.2100L594.3984,559.2100"/>
   <path d="M591.2291,556.0407L591.2291,562.3793"/>
   <path d="M618.9798,559.2100L625.3184,559.2100"/>
   <path d="M622.1491,556.0407L622.1491,562.3793"/>
  </g>
  <g style="fill:#DCDCDC; fill-rule:nonzero">
   <text   style="font-family:'Times','serif'; font-style:normal; font-weight:normal; font-size:773.0000" transform="matrix(0.0224,0.0000,-0.0000,-0.0224,633.0484,531.4800)">2015.03.01 4K J-pop sample</text>
  </g>
  <g style="fill:none; stroke:#FFA500; stroke-width:  1.1595; stroke-linecap:butt; stroke-linejoin:miter; stroke-dasharray: 1 3">
   <path d="M591.2291,535.4800L622.1491,535.4800"/>
  </g>
  <g style="fill:none; stroke:#FFA500; stroke-width:  1.1595; stroke-linecap:butt; stroke-linejoin:miter; stroke-dasharray:none">
   <path d="M588.0598,535.4800L594.3984,535.4800"/>
   <path d="M591.2291,532.3107L591.2291,538.6493"/>
   <path d="M618.9798,535.4800L625.3184,535.4800"/>
   <path d="M622.1491,532.3107L622.1491,538.6493"/>
  </g>
 </g>
</svg>
